<svg width="16" height="16" viewBox="0 0 16 16" fill="none" xmlns="http://www.w3.org/2000/svg">
<path d="M6.10664 7.24665C6.03998 7.23998 5.95998 7.23998 5.88664 7.24665C4.29998 7.19331 3.03998 5.89331 3.03998 4.29331C3.03998 2.65998 4.35998 1.33331 5.99998 1.33331C7.63331 1.33331 8.95998 2.65998 8.95998 4.29331C8.95331 5.89331 7.69331 7.19331 6.10664 7.24665Z" stroke="#6E75AE" stroke-linecap="round" stroke-linejoin="round"/>
<path d="M10.94 2.66669C12.2333 2.66669 13.2733 3.71335 13.2733 5.00002C13.2733 6.26002 12.2733 7.28669 11.0267 7.33335C10.9733 7.32669 10.9133 7.32669 10.8533 7.33335" stroke="#6E75AE" stroke-linecap="round" stroke-linejoin="round"/>
<path d="M2.77335 9.70669C1.16002 10.7867 1.16002 12.5467 2.77335 13.62C4.60669 14.8467 7.61335 14.8467 9.44669 13.62C11.06 12.54 11.06 10.78 9.44669 9.70669C7.62002 8.48669 4.61335 8.48669 2.77335 9.70669Z" stroke="#6E75AE" stroke-linecap="round" stroke-linejoin="round"/>
<path d="M12.2267 13.3333C12.7067 13.2333 13.16 13.04 13.5333 12.7533C14.5733 11.9733 14.5733 10.6866 13.5333 9.90665C13.1667 9.62665 12.72 9.43998 12.2467 9.33331" stroke="#6E75AE" stroke-linecap="round" stroke-linejoin="round"/>
</svg>
