<svg width="497" height="123" viewBox="0 0 497 123" fill="none" xmlns="http://www.w3.org/2000/svg">
<path d="M5.66067 119.922C5.66067 120.397 5.56734 120.802 5.38067 121.138C5.19934 121.48 4.94867 121.738 4.62867 121.914C4.30867 122.096 3.94067 122.194 3.52467 122.21V121.378C3.898 121.357 4.20467 121.229 4.44467 120.994C4.68467 120.76 4.80467 120.394 4.80467 119.898V115.202H5.66067V119.922ZM8.50923 121.09C8.19457 121.09 7.90923 121.026 7.65323 120.898C7.39723 120.765 7.19457 120.568 7.04523 120.306C6.8959 120.045 6.82123 119.722 6.82123 119.338C6.82123 118.96 6.89857 118.634 7.05323 118.362C7.21323 118.09 7.42123 117.882 7.67723 117.738C7.93857 117.589 8.22123 117.514 8.52523 117.514C8.84523 117.514 9.10657 117.584 9.30923 117.722C9.51723 117.856 9.6799 118.013 9.79723 118.194L9.74123 118.322L9.82123 117.658H10.5812V121.01H9.75723V120.17L9.84523 120.37C9.8239 120.413 9.77857 120.474 9.70923 120.554C9.6399 120.629 9.54657 120.709 9.42923 120.794C9.31723 120.88 9.1839 120.952 9.02923 121.01C8.8799 121.064 8.70657 121.09 8.50923 121.09ZM8.73323 120.418C8.90923 120.418 9.06657 120.386 9.20523 120.322C9.3439 120.258 9.46123 120.168 9.55723 120.05C9.65323 119.933 9.7199 119.794 9.75723 119.634V118.938C9.71457 118.789 9.64257 118.661 9.54123 118.554C9.4399 118.442 9.31723 118.354 9.17323 118.29C9.03457 118.226 8.8799 118.194 8.70923 118.194C8.51723 118.194 8.34123 118.242 8.18123 118.338C8.02123 118.429 7.89323 118.557 7.79723 118.722C7.70123 118.888 7.65323 119.08 7.65323 119.298C7.65323 119.506 7.70123 119.696 7.79723 119.866C7.89857 120.037 8.0319 120.173 8.19723 120.274C8.36257 120.37 8.54123 120.418 8.73323 120.418ZM12.5796 117.658L12.6516 118.426L12.6196 118.322C12.7316 118.082 12.9049 117.89 13.1396 117.746C13.3743 117.597 13.6516 117.522 13.9716 117.522C14.2863 117.522 14.5449 117.616 14.7476 117.802C14.9556 117.989 15.0623 118.232 15.0676 118.53V121.01H14.2436V118.818C14.2383 118.648 14.1876 118.509 14.0916 118.402C13.9956 118.29 13.8463 118.232 13.6436 118.226C13.4623 118.226 13.2969 118.282 13.1476 118.394C12.9983 118.501 12.8809 118.648 12.7956 118.834C12.7103 119.021 12.6676 119.237 12.6676 119.482V121.01H11.8436V117.658H12.5796Z" fill="#7178B3"/>
<rect x="0.000671387" y="70.0681" width="20" height="34.9551" rx="4" fill="#7178B3"/>
<path d="M47.1803 115.202H50.6603V116.026H48.0363V117.77H50.3323V118.586H48.0363V121.01H47.1803V115.202ZM52.7088 121.09C52.3942 121.09 52.1088 121.026 51.8528 120.898C51.5968 120.765 51.3942 120.568 51.2448 120.306C51.0955 120.045 51.0208 119.722 51.0208 119.338C51.0208 118.96 51.0982 118.634 51.2528 118.362C51.4128 118.09 51.6208 117.882 51.8768 117.738C52.1382 117.589 52.4208 117.514 52.7248 117.514C53.0448 117.514 53.3062 117.584 53.5088 117.722C53.7168 117.856 53.8795 118.013 53.9968 118.194L53.9408 118.322L54.0208 117.658H54.7808V121.01H53.9568V120.17L54.0448 120.37C54.0235 120.413 53.9782 120.474 53.9088 120.554C53.8395 120.629 53.7462 120.709 53.6288 120.794C53.5168 120.88 53.3835 120.952 53.2288 121.01C53.0795 121.064 52.9062 121.09 52.7088 121.09ZM52.9328 120.418C53.1088 120.418 53.2662 120.386 53.4048 120.322C53.5435 120.258 53.6608 120.168 53.7568 120.05C53.8528 119.933 53.9195 119.794 53.9568 119.634V118.938C53.9142 118.789 53.8422 118.661 53.7408 118.554C53.6395 118.442 53.5168 118.354 53.3728 118.29C53.2342 118.226 53.0795 118.194 52.9088 118.194C52.7168 118.194 52.5408 118.242 52.3808 118.338C52.2208 118.429 52.0928 118.557 51.9968 118.722C51.9008 118.888 51.8528 119.08 51.8528 119.298C51.8528 119.506 51.9008 119.696 51.9968 119.866C52.0982 120.037 52.2315 120.173 52.3968 120.274C52.5622 120.37 52.7408 120.418 52.9328 120.418ZM58.1232 121.09C57.8192 121.09 57.5525 121.029 57.3232 120.906C57.0992 120.778 56.9179 120.618 56.7792 120.426L56.8672 120.194V121.01H56.0432V114.794H56.8592V118.386L56.8432 118.09C56.9712 117.92 57.1579 117.781 57.4032 117.674C57.6485 117.568 57.9232 117.514 58.2272 117.514C58.5259 117.514 58.7979 117.586 59.0432 117.73C59.2939 117.874 59.4912 118.08 59.6352 118.346C59.7845 118.608 59.8592 118.92 59.8592 119.282C59.8592 119.656 59.7792 119.978 59.6192 120.25C59.4592 120.522 59.2459 120.73 58.9792 120.874C58.7179 121.018 58.4325 121.09 58.1232 121.09ZM57.9472 120.394C58.1499 120.394 58.3312 120.346 58.4912 120.25C58.6565 120.154 58.7872 120.021 58.8832 119.85C58.9792 119.68 59.0272 119.488 59.0272 119.274C59.0272 119.066 58.9792 118.88 58.8832 118.714C58.7872 118.549 58.6565 118.418 58.4912 118.322C58.3312 118.221 58.1499 118.17 57.9472 118.17C57.7712 118.17 57.6085 118.202 57.4592 118.266C57.3099 118.33 57.1845 118.418 57.0832 118.53C56.9819 118.642 56.9099 118.773 56.8672 118.922V119.634C56.9099 119.784 56.9819 119.917 57.0832 120.034C57.1845 120.146 57.3072 120.234 57.4512 120.298C57.6005 120.362 57.7659 120.394 57.9472 120.394Z" fill="#7178B3"/>
<rect x="43.3643" y="54.0935" width="20" height="50.9297" rx="4" fill="#7178B3"/>
<path d="M133.316 121.01L135.868 114.97H135.916L138.468 121.01H137.492L135.636 116.306L136.252 115.898L134.156 121.01H133.316ZM134.868 118.834H136.932L137.228 119.57H134.612L134.868 118.834ZM141.333 121.09C141.088 121.09 140.853 121.037 140.629 120.93C140.405 120.818 140.227 120.669 140.093 120.482L140.141 120.234V122.618H139.325V117.602H140.037L140.149 118.418L140.061 118.186C140.227 117.994 140.429 117.834 140.669 117.706C140.915 117.578 141.187 117.514 141.485 117.514C141.8 117.514 142.083 117.589 142.333 117.738C142.584 117.888 142.781 118.098 142.925 118.37C143.069 118.642 143.141 118.962 143.141 119.33C143.141 119.693 143.061 120.008 142.901 120.274C142.747 120.536 142.533 120.738 142.261 120.882C141.989 121.021 141.68 121.09 141.333 121.09ZM141.173 120.442C141.376 120.442 141.563 120.394 141.733 120.298C141.909 120.202 142.048 120.072 142.149 119.906C142.256 119.736 142.309 119.546 142.309 119.338C142.309 119.12 142.259 118.928 142.157 118.762C142.061 118.592 141.931 118.458 141.765 118.362C141.605 118.266 141.427 118.218 141.229 118.218C141.043 118.218 140.877 118.253 140.733 118.322C140.589 118.386 140.467 118.477 140.365 118.594C140.264 118.712 140.192 118.853 140.149 119.018V119.634C140.181 119.789 140.245 119.928 140.341 120.05C140.437 120.173 140.557 120.269 140.701 120.338C140.845 120.408 141.003 120.442 141.173 120.442ZM144.85 117.658L144.93 118.618L144.89 118.49C144.981 118.288 145.109 118.114 145.274 117.97C145.44 117.826 145.61 117.717 145.786 117.642C145.968 117.562 146.12 117.522 146.242 117.522L146.202 118.338C145.946 118.322 145.722 118.37 145.53 118.482C145.344 118.594 145.197 118.744 145.09 118.93C144.984 119.117 144.93 119.317 144.93 119.53V121.01H144.114V117.658H144.85Z" fill="#7178B3"/>
<rect x="130.092" y="34.743" width="20" height="70.2802" rx="4" fill="#7178B3"/>
<path d="M222.979 119.922C222.979 120.397 222.886 120.802 222.699 121.138C222.518 121.48 222.267 121.738 221.947 121.914C221.627 122.096 221.259 122.194 220.843 122.21V121.378C221.216 121.357 221.523 121.229 221.763 120.994C222.003 120.76 222.123 120.394 222.123 119.898V115.202H222.979V119.922ZM225.499 121.146C225.19 121.146 224.937 121.053 224.739 120.866C224.542 120.68 224.438 120.44 224.427 120.146V117.658H225.251V119.85C225.262 120.021 225.31 120.162 225.395 120.274C225.486 120.381 225.63 120.437 225.827 120.442C226.009 120.442 226.169 120.389 226.307 120.282C226.451 120.17 226.563 120.021 226.643 119.834C226.729 119.642 226.771 119.424 226.771 119.178V117.658H227.595V121.01H226.851L226.787 120.234L226.819 120.362C226.75 120.512 226.651 120.648 226.523 120.77C226.395 120.888 226.243 120.978 226.067 121.042C225.891 121.112 225.702 121.146 225.499 121.146ZM229.593 117.658L229.665 118.426L229.633 118.322C229.745 118.082 229.918 117.89 230.153 117.746C230.388 117.597 230.665 117.522 230.985 117.522C231.3 117.522 231.558 117.616 231.761 117.802C231.969 117.989 232.076 118.232 232.081 118.53V121.01H231.257V118.818C231.252 118.648 231.201 118.509 231.105 118.402C231.009 118.29 230.86 118.232 230.657 118.226C230.476 118.226 230.31 118.282 230.161 118.394C230.012 118.501 229.894 118.648 229.809 118.834C229.724 119.021 229.681 119.237 229.681 119.482V121.01H228.857V117.658H229.593Z" fill="#FF5151"/>
<rect x="216.819" width="20" height="105.023" rx="4" fill="#FF5151"/>
<path d="M175.771 121.01V115.01H175.779L178.867 119.386L178.499 119.306L181.571 115.01H181.587V121.01H180.739V116.938L180.795 117.378L178.651 120.41H178.635L176.451 117.378L176.595 116.978V121.01H175.771ZM184.433 121.09C184.118 121.09 183.833 121.026 183.577 120.898C183.321 120.765 183.118 120.568 182.969 120.306C182.819 120.045 182.745 119.722 182.745 119.338C182.745 118.96 182.822 118.634 182.977 118.362C183.137 118.09 183.345 117.882 183.601 117.738C183.862 117.589 184.145 117.514 184.449 117.514C184.769 117.514 185.03 117.584 185.233 117.722C185.441 117.856 185.603 118.013 185.721 118.194L185.665 118.322L185.745 117.658H186.505V121.01H185.681V120.17L185.769 120.37C185.747 120.413 185.702 120.474 185.633 120.554C185.563 120.629 185.47 120.709 185.353 120.794C185.241 120.88 185.107 120.952 184.953 121.01C184.803 121.064 184.63 121.09 184.433 121.09ZM184.657 120.418C184.833 120.418 184.99 120.386 185.129 120.322C185.267 120.258 185.385 120.168 185.481 120.05C185.577 119.933 185.643 119.794 185.681 119.634V118.938C185.638 118.789 185.566 118.661 185.465 118.554C185.363 118.442 185.241 118.354 185.097 118.29C184.958 118.226 184.803 118.194 184.633 118.194C184.441 118.194 184.265 118.242 184.105 118.338C183.945 118.429 183.817 118.557 183.721 118.722C183.625 118.888 183.577 119.08 183.577 119.298C183.577 119.506 183.625 119.696 183.721 119.866C183.822 120.037 183.955 120.173 184.121 120.274C184.286 120.37 184.465 120.418 184.657 120.418ZM188.047 122.618L190.263 117.658H191.015L188.855 122.618H188.047ZM188.895 121.034L187.271 117.658H188.199L189.527 120.618L188.895 121.034Z" fill="#7178B3"/>
<rect x="173.455" y="54.0935" width="20" height="50.9298" rx="4" fill="#7178B3"/>
<path d="M306.27 121.01L308.822 114.97H308.87L311.422 121.01H310.446L308.59 116.306L309.206 115.898L307.11 121.01H306.27ZM307.822 118.834H309.886L310.182 119.57H307.566L307.822 118.834ZM313.352 121.146C313.042 121.146 312.789 121.053 312.592 120.866C312.394 120.68 312.29 120.44 312.28 120.146V117.658H313.104V119.85C313.114 120.021 313.162 120.162 313.248 120.274C313.338 120.381 313.482 120.437 313.68 120.442C313.861 120.442 314.021 120.389 314.16 120.282C314.304 120.17 314.416 120.021 314.496 119.834C314.581 119.642 314.624 119.424 314.624 119.178V117.658H315.448V121.01H314.704L314.64 120.234L314.672 120.362C314.602 120.512 314.504 120.648 314.376 120.77C314.248 120.888 314.096 120.978 313.92 121.042C313.744 121.112 313.554 121.146 313.352 121.146ZM318.349 122.674C318.088 122.674 317.861 122.645 317.669 122.586C317.477 122.528 317.304 122.445 317.149 122.338C317 122.237 316.856 122.128 316.717 122.01L317.205 121.442C317.371 121.597 317.541 121.72 317.717 121.81C317.893 121.906 318.099 121.954 318.333 121.954C318.568 121.954 318.768 121.914 318.933 121.834C319.104 121.76 319.235 121.653 319.325 121.514C319.416 121.376 319.461 121.21 319.461 121.018L319.469 120.146L319.525 120.306C319.435 120.525 319.267 120.712 319.021 120.866C318.776 121.016 318.475 121.09 318.117 121.09C317.813 121.09 317.531 121.013 317.269 120.858C317.013 120.704 316.808 120.493 316.653 120.226C316.499 119.96 316.421 119.658 316.421 119.322C316.421 118.97 316.501 118.661 316.661 118.394C316.827 118.122 317.043 117.909 317.309 117.754C317.576 117.594 317.861 117.514 318.165 117.514C318.464 117.514 318.731 117.573 318.965 117.69C319.2 117.802 319.376 117.944 319.493 118.114L319.445 118.25L319.533 117.658H320.293V121.026C320.293 121.336 320.211 121.613 320.045 121.858C319.885 122.109 319.661 122.306 319.373 122.45C319.085 122.6 318.744 122.674 318.349 122.674ZM317.253 119.298C317.253 119.506 317.301 119.696 317.397 119.866C317.493 120.037 317.624 120.173 317.789 120.274C317.96 120.37 318.149 120.418 318.357 120.418C318.544 120.418 318.712 120.386 318.861 120.322C319.011 120.253 319.136 120.162 319.237 120.05C319.344 119.933 319.421 119.797 319.469 119.642V118.946C319.421 118.792 319.344 118.661 319.237 118.554C319.131 118.442 319.003 118.354 318.853 118.29C318.704 118.226 318.539 118.194 318.357 118.194C318.149 118.194 317.96 118.242 317.789 118.338C317.624 118.429 317.493 118.557 317.397 118.722C317.301 118.888 317.253 119.08 317.253 119.298Z" fill="#7178B3"/>
<rect x="303.546" y="70.5851" width="20" height="34.4379" rx="4" fill="#7178B3"/>
<path d="M353.75 116.314C353.547 116.208 353.329 116.117 353.094 116.042C352.859 115.968 352.633 115.93 352.414 115.93C352.115 115.93 351.878 116 351.702 116.138C351.526 116.272 351.438 116.456 351.438 116.69C351.438 116.856 351.497 117 351.614 117.122C351.731 117.245 351.883 117.352 352.07 117.442C352.257 117.533 352.454 117.618 352.662 117.698C352.838 117.762 353.011 117.84 353.182 117.93C353.358 118.016 353.515 118.122 353.654 118.25C353.798 118.378 353.91 118.538 353.99 118.73C354.075 118.917 354.118 119.146 354.118 119.418C354.118 119.728 354.041 120.008 353.886 120.258C353.737 120.509 353.518 120.709 353.23 120.858C352.947 121.002 352.603 121.074 352.198 121.074C351.953 121.074 351.713 121.048 351.478 120.994C351.249 120.936 351.03 120.861 350.822 120.77C350.619 120.674 350.435 120.57 350.27 120.458L350.654 119.794C350.782 119.885 350.929 119.973 351.094 120.058C351.259 120.138 351.43 120.202 351.606 120.25C351.787 120.298 351.958 120.322 352.118 120.322C352.294 120.322 352.467 120.293 352.638 120.234C352.809 120.17 352.95 120.074 353.062 119.946C353.174 119.813 353.23 119.64 353.23 119.426C353.23 119.245 353.179 119.093 353.078 118.97C352.982 118.842 352.851 118.733 352.686 118.642C352.526 118.552 352.353 118.472 352.166 118.402C351.985 118.333 351.801 118.256 351.614 118.17C351.427 118.085 351.254 117.984 351.094 117.866C350.934 117.744 350.803 117.594 350.702 117.418C350.606 117.237 350.558 117.016 350.558 116.754C350.558 116.445 350.63 116.176 350.774 115.946C350.923 115.712 351.129 115.528 351.39 115.394C351.651 115.261 351.953 115.186 352.294 115.17C352.683 115.17 353.022 115.218 353.31 115.314C353.598 115.41 353.854 115.525 354.078 115.658L353.75 116.314ZM356.774 121.09C356.385 121.09 356.051 121.016 355.774 120.866C355.497 120.712 355.283 120.501 355.134 120.234C354.985 119.962 354.91 119.653 354.91 119.306C354.91 118.976 354.993 118.677 355.158 118.41C355.329 118.138 355.555 117.922 355.838 117.762C356.126 117.602 356.443 117.522 356.79 117.522C357.238 117.522 357.609 117.653 357.902 117.914C358.201 118.176 358.401 118.541 358.502 119.01L355.774 119.954L355.582 119.474L357.766 118.69L357.598 118.794C357.534 118.629 357.433 118.485 357.294 118.362C357.155 118.234 356.966 118.17 356.726 118.17C356.534 118.17 356.361 118.218 356.206 118.314C356.057 118.405 355.937 118.533 355.846 118.698C355.761 118.858 355.718 119.048 355.718 119.266C355.718 119.49 355.763 119.688 355.854 119.858C355.95 120.024 356.078 120.154 356.238 120.25C356.403 120.346 356.587 120.394 356.79 120.394C356.934 120.394 357.07 120.368 357.198 120.314C357.331 120.261 357.457 120.194 357.574 120.114L357.95 120.722C357.774 120.834 357.582 120.925 357.374 120.994C357.171 121.058 356.971 121.09 356.774 121.09ZM361.425 121.09C361.18 121.09 360.945 121.037 360.721 120.93C360.497 120.818 360.318 120.669 360.185 120.482L360.233 120.234V122.618H359.417V117.602H360.129L360.241 118.418L360.153 118.186C360.318 117.994 360.521 117.834 360.761 117.706C361.006 117.578 361.278 117.514 361.577 117.514C361.892 117.514 362.174 117.589 362.425 117.738C362.676 117.888 362.873 118.098 363.017 118.37C363.161 118.642 363.233 118.962 363.233 119.33C363.233 119.693 363.153 120.008 362.993 120.274C362.838 120.536 362.625 120.738 362.353 120.882C362.081 121.021 361.772 121.09 361.425 121.09ZM361.265 120.442C361.468 120.442 361.654 120.394 361.825 120.298C362.001 120.202 362.14 120.072 362.241 119.906C362.348 119.736 362.401 119.546 362.401 119.338C362.401 119.12 362.35 118.928 362.249 118.762C362.153 118.592 362.022 118.458 361.857 118.362C361.697 118.266 361.518 118.218 361.321 118.218C361.134 118.218 360.969 118.253 360.825 118.322C360.681 118.386 360.558 118.477 360.457 118.594C360.356 118.712 360.284 118.853 360.241 119.018V119.634C360.273 119.789 360.337 119.928 360.433 120.05C360.529 120.173 360.649 120.269 360.793 120.338C360.937 120.408 361.094 120.442 361.265 120.442Z" fill="#7178B3"/>
<rect x="346.91" y="54.0935" width="20" height="50.9297" rx="4" fill="#7178B3"/>
<path d="M393.729 118.114C393.729 117.714 393.804 117.336 393.953 116.978C394.108 116.621 394.321 116.304 394.593 116.026C394.865 115.749 395.18 115.533 395.537 115.378C395.895 115.218 396.279 115.138 396.689 115.138C397.095 115.138 397.476 115.218 397.833 115.378C398.191 115.533 398.508 115.749 398.785 116.026C399.063 116.304 399.279 116.621 399.433 116.978C399.588 117.336 399.665 117.714 399.665 118.114C399.665 118.525 399.588 118.909 399.433 119.266C399.279 119.624 399.063 119.938 398.785 120.21C398.513 120.482 398.196 120.696 397.833 120.85C397.476 121 397.095 121.074 396.689 121.074C396.279 121.074 395.895 121 395.537 120.85C395.18 120.701 394.865 120.493 394.593 120.226C394.321 119.954 394.108 119.64 393.953 119.282C393.804 118.92 393.729 118.53 393.729 118.114ZM394.609 118.114C394.609 118.413 394.663 118.693 394.769 118.954C394.881 119.21 395.033 119.437 395.225 119.634C395.417 119.826 395.639 119.978 395.889 120.09C396.145 120.197 396.42 120.25 396.713 120.25C397.001 120.25 397.271 120.197 397.521 120.09C397.772 119.978 397.991 119.826 398.177 119.634C398.369 119.437 398.519 119.21 398.625 118.954C398.732 118.693 398.785 118.413 398.785 118.114C398.785 117.816 398.729 117.538 398.617 117.282C398.511 117.021 398.361 116.792 398.169 116.594C397.983 116.397 397.761 116.242 397.505 116.13C397.255 116.018 396.985 115.962 396.697 115.962C396.399 115.962 396.124 116.018 395.873 116.13C395.623 116.242 395.401 116.397 395.209 116.594C395.017 116.792 394.868 117.021 394.761 117.282C394.66 117.544 394.609 117.821 394.609 118.114ZM403.501 120.698C403.352 120.821 403.17 120.917 402.957 120.986C402.749 121.056 402.538 121.09 402.325 121.09C401.957 121.09 401.632 121.018 401.349 120.874C401.072 120.73 400.856 120.528 400.701 120.266C400.546 120.005 400.469 119.693 400.469 119.33C400.469 118.973 400.552 118.664 400.717 118.402C400.882 118.136 401.101 117.933 401.373 117.794C401.645 117.65 401.933 117.578 402.237 117.578C402.514 117.578 402.76 117.616 402.973 117.69C403.186 117.765 403.37 117.869 403.525 118.002L403.117 118.538C403.026 118.464 402.912 118.397 402.773 118.338C402.64 118.28 402.485 118.25 402.309 118.25C402.122 118.25 401.952 118.298 401.797 118.394C401.642 118.485 401.52 118.613 401.429 118.778C401.338 118.938 401.293 119.122 401.293 119.33C401.293 119.528 401.338 119.712 401.429 119.882C401.525 120.048 401.656 120.178 401.821 120.274C401.986 120.37 402.176 120.418 402.389 120.418C402.528 120.418 402.656 120.4 402.773 120.362C402.89 120.32 402.994 120.261 403.085 120.186L403.501 120.698ZM404.765 116.186H405.589V117.666H406.485V118.314H405.589V121.01H404.765V118.314H404.173V117.666H404.765V116.186Z" fill="#7178B3"/>
<rect x="390.273" y="70.5851" width="20" height="34.4379" rx="4" fill="#7178B3"/>
<path d="M441.517 121.21L437.045 116.77L437.293 116.85L437.317 121.01H436.453V115.018H436.493L440.909 119.466L440.709 119.41L440.693 115.202H441.541V121.21H441.517ZM442.708 119.298C442.708 118.962 442.788 118.661 442.948 118.394C443.108 118.122 443.329 117.909 443.612 117.754C443.894 117.6 444.217 117.522 444.58 117.522C444.948 117.522 445.27 117.6 445.548 117.754C445.825 117.909 446.038 118.122 446.188 118.394C446.342 118.661 446.42 118.962 446.42 119.298C446.42 119.634 446.342 119.938 446.188 120.21C446.038 120.482 445.825 120.698 445.548 120.858C445.27 121.013 444.945 121.09 444.572 121.09C444.214 121.09 443.894 121.018 443.612 120.874C443.334 120.73 443.113 120.525 442.948 120.258C442.788 119.986 442.708 119.666 442.708 119.298ZM443.54 119.306C443.54 119.514 443.585 119.704 443.676 119.874C443.766 120.04 443.889 120.173 444.044 120.274C444.198 120.37 444.372 120.418 444.564 120.418C444.761 120.418 444.937 120.37 445.092 120.274C445.246 120.173 445.366 120.04 445.452 119.874C445.542 119.704 445.588 119.514 445.588 119.306C445.588 119.098 445.542 118.912 445.452 118.746C445.366 118.581 445.246 118.448 445.092 118.346C444.937 118.245 444.761 118.194 444.564 118.194C444.366 118.194 444.19 118.245 444.036 118.346C443.881 118.448 443.758 118.584 443.668 118.754C443.582 118.92 443.54 119.104 443.54 119.306ZM448.693 121.098L446.797 117.658H447.773L449.005 120.25L448.501 120.226L449.621 117.658H450.541L448.725 121.098H448.693Z" fill="#7178B3"/>
<rect x="433.637" y="54.0935" width="20" height="50.9297" rx="4" fill="#7178B3"/>
<path d="M480.817 121.01V115.202H482.433C483.009 115.202 483.499 115.29 483.905 115.466C484.31 115.642 484.635 115.874 484.881 116.162C485.131 116.45 485.313 116.77 485.425 117.122C485.542 117.474 485.601 117.829 485.601 118.186C485.601 118.618 485.523 119.008 485.369 119.354C485.214 119.701 485.003 120 484.737 120.25C484.47 120.496 484.163 120.685 483.817 120.818C483.47 120.946 483.102 121.01 482.713 121.01H480.817ZM481.673 120.186H482.553C482.867 120.186 483.155 120.141 483.417 120.05C483.683 119.96 483.913 119.826 484.105 119.65C484.302 119.474 484.454 119.258 484.561 119.002C484.667 118.746 484.721 118.453 484.721 118.122C484.721 117.765 484.659 117.456 484.537 117.194C484.419 116.928 484.262 116.709 484.065 116.538C483.867 116.362 483.646 116.234 483.401 116.154C483.161 116.069 482.915 116.026 482.665 116.026H481.673V120.186ZM488.263 121.09C487.874 121.09 487.541 121.016 487.263 120.866C486.986 120.712 486.773 120.501 486.623 120.234C486.474 119.962 486.399 119.653 486.399 119.306C486.399 118.976 486.482 118.677 486.647 118.41C486.818 118.138 487.045 117.922 487.327 117.762C487.615 117.602 487.933 117.522 488.279 117.522C488.727 117.522 489.098 117.653 489.391 117.914C489.69 118.176 489.89 118.541 489.991 119.01L487.263 119.954L487.071 119.474L489.255 118.69L489.087 118.794C489.023 118.629 488.922 118.485 488.783 118.362C488.645 118.234 488.455 118.17 488.215 118.17C488.023 118.17 487.85 118.218 487.695 118.314C487.546 118.405 487.426 118.533 487.335 118.698C487.25 118.858 487.207 119.048 487.207 119.266C487.207 119.49 487.253 119.688 487.343 119.858C487.439 120.024 487.567 120.154 487.727 120.25C487.893 120.346 488.077 120.394 488.279 120.394C488.423 120.394 488.559 120.368 488.687 120.314C488.821 120.261 488.946 120.194 489.063 120.114L489.439 120.722C489.263 120.834 489.071 120.925 488.863 120.994C488.661 121.058 488.461 121.09 488.263 121.09ZM493.65 120.698C493.501 120.821 493.32 120.917 493.106 120.986C492.898 121.056 492.688 121.09 492.474 121.09C492.106 121.09 491.781 121.018 491.498 120.874C491.221 120.73 491.005 120.528 490.85 120.266C490.696 120.005 490.618 119.693 490.618 119.33C490.618 118.973 490.701 118.664 490.866 118.402C491.032 118.136 491.25 117.933 491.522 117.794C491.794 117.65 492.082 117.578 492.386 117.578C492.664 117.578 492.909 117.616 493.122 117.69C493.336 117.765 493.52 117.869 493.674 118.002L493.266 118.538C493.176 118.464 493.061 118.397 492.922 118.338C492.789 118.28 492.634 118.25 492.458 118.25C492.272 118.25 492.101 118.298 491.946 118.394C491.792 118.485 491.669 118.613 491.578 118.778C491.488 118.938 491.442 119.122 491.442 119.33C491.442 119.528 491.488 119.712 491.578 119.882C491.674 120.048 491.805 120.178 491.97 120.274C492.136 120.37 492.325 120.418 492.538 120.418C492.677 120.418 492.805 120.4 492.922 120.362C493.04 120.32 493.144 120.261 493.234 120.186L493.65 120.698Z" fill="#7178B3"/>
<rect x="477.001" y="54.0935" width="20" height="50.9297" rx="4" fill="#7178B3"/>
<path d="M267.343 119.922C267.343 120.397 267.249 120.802 267.063 121.138C266.881 121.479 266.631 121.738 266.311 121.914C265.991 122.095 265.623 122.194 265.207 122.21V121.378C265.58 121.357 265.887 121.229 266.127 120.994C266.367 120.759 266.487 120.394 266.487 119.898V115.202H267.343V119.922ZM269.863 121.146C269.554 121.146 269.3 121.053 269.103 120.866C268.906 120.679 268.802 120.439 268.791 120.146V117.658H269.615V119.85C269.626 120.021 269.674 120.162 269.759 120.274C269.85 120.381 269.994 120.437 270.191 120.442C270.372 120.442 270.532 120.389 270.671 120.282C270.815 120.17 270.927 120.021 271.007 119.834C271.092 119.642 271.135 119.423 271.135 119.178V117.658H271.959V121.01H271.215L271.151 120.234L271.183 120.362C271.114 120.511 271.015 120.647 270.887 120.77C270.759 120.887 270.607 120.978 270.431 121.042C270.255 121.111 270.066 121.146 269.863 121.146ZM273.221 114.794H274.045V121.01H273.221V114.794Z" fill="#7178B3"/>
<rect x="260.183" y="42.6588" width="20" height="62.3642" rx="4" fill="#7178B3"/>
<path d="M89.544 121.01V115.01H89.552L92.64 119.386L92.272 119.306L95.344 115.01H95.36V121.01H94.512V116.938L94.568 117.378L92.424 120.41H92.408L90.224 117.378L90.368 116.978V121.01H89.544ZM98.2053 121.09C97.8906 121.09 97.6053 121.026 97.3493 120.898C97.0933 120.765 96.8906 120.568 96.7413 120.306C96.5919 120.045 96.5173 119.722 96.5173 119.338C96.5173 118.96 96.5946 118.634 96.7493 118.362C96.9093 118.09 97.1173 117.882 97.3733 117.738C97.6346 117.589 97.9173 117.514 98.2213 117.514C98.5413 117.514 98.8026 117.584 99.0053 117.722C99.2133 117.856 99.3759 118.013 99.4933 118.194L99.4373 118.322L99.5173 117.658H100.277V121.01H99.4533V120.17L99.5413 120.37C99.5199 120.413 99.4746 120.474 99.4053 120.554C99.3359 120.629 99.2426 120.709 99.1253 120.794C99.0133 120.88 98.8799 120.952 98.7253 121.01C98.5759 121.064 98.4026 121.09 98.2053 121.09ZM98.4293 120.418C98.6053 120.418 98.7626 120.386 98.9013 120.322C99.0399 120.258 99.1573 120.168 99.2533 120.05C99.3493 119.933 99.4159 119.794 99.4533 119.634V118.938C99.4106 118.789 99.3386 118.661 99.2373 118.554C99.1359 118.442 99.0133 118.354 98.8693 118.29C98.7306 118.226 98.5759 118.194 98.4053 118.194C98.2133 118.194 98.0373 118.242 97.8773 118.338C97.7173 118.429 97.5893 118.557 97.4933 118.722C97.3973 118.888 97.3493 119.08 97.3493 119.298C97.3493 119.506 97.3973 119.696 97.4933 119.866C97.5946 120.037 97.7279 120.173 97.8933 120.274C98.0586 120.37 98.2373 120.418 98.4293 120.418ZM102.276 117.658L102.356 118.618L102.316 118.49C102.406 118.288 102.534 118.114 102.7 117.97C102.865 117.826 103.036 117.717 103.212 117.642C103.393 117.562 103.545 117.522 103.668 117.522L103.628 118.338C103.372 118.322 103.148 118.37 102.956 118.482C102.769 118.594 102.622 118.744 102.516 118.93C102.409 119.117 102.356 119.317 102.356 119.53V121.01H101.54V117.658H102.276Z" fill="#7178B3"/>
<rect x="86.728" y="84.2185" width="20" height="20.8047" rx="4" fill="#7178B3"/>
</svg>
